<svg width="20" height="20" viewBox="0 0 20 20" fill="none" xmlns="http://www.w3.org/2000/svg">
<path d="M7.49976 1.54102H12.4998C14.7049 1.54102 16.1602 2.01393 17.073 2.92676C17.9857 3.83955 18.4587 5.29423 18.4587 7.49902V12.499C18.4587 14.7041 17.9858 16.1594 17.073 17.0723C16.1602 17.9851 14.7049 18.458 12.4998 18.458H7.49976C5.29496 18.458 3.84028 17.9849 2.92749 17.0723C2.01466 16.1594 1.54175 14.7041 1.54175 12.499V7.49902C1.54179 5.2941 2.01471 3.83954 2.92749 2.92676C3.84027 2.01397 5.29483 1.54106 7.49976 1.54102ZM7.49976 1.79102C5.54381 1.79105 4.06852 2.13339 3.10132 3.10059C2.13412 4.06778 1.79179 5.54308 1.79175 7.49902V12.499C1.79175 14.4549 2.13432 15.9302 3.10132 16.8975C4.06852 17.8647 5.54381 18.208 7.49976 18.208H12.4998C14.4559 18.208 15.9309 17.8647 16.8982 16.8975C17.8654 15.9302 18.2087 14.4551 18.2087 12.499V7.49902C18.2087 5.54308 17.8654 4.06778 16.8982 3.10059C15.9309 2.13358 14.4556 1.79102 12.4998 1.79102H7.49976Z" fill="#292D32" stroke="#494949"/>
<path d="M13.5415 7.50977C13.5773 7.50977 13.6079 7.52341 13.6294 7.54492C13.6509 7.56645 13.6646 7.59696 13.6646 7.63281C13.6645 7.66861 13.6509 7.6992 13.6294 7.7207L8.90479 12.4453C8.88086 12.4692 8.84938 12.4824 8.81689 12.4824C8.78434 12.4824 8.75297 12.4693 8.729 12.4453L6.37061 10.0879C6.34908 10.0664 6.33545 10.0349 6.33545 9.99902C6.33553 9.96331 6.34914 9.93259 6.37061 9.91113C6.39212 9.88974 6.42277 9.87598 6.4585 9.87598C6.49424 9.87601 6.52489 9.88969 6.54639 9.91113L8.81689 12.1816L13.4536 7.54492C13.4751 7.52343 13.5057 7.50981 13.5415 7.50977Z" fill="#292D32" stroke="#494949"/>
</svg>
